<?xml version="1.0" encoding="iso-8859-1"?>
<!-- Generator: Adobe Illustrator 19.0.0, SVG Export Plug-In . SVG Version: 6.00 Build 0)  -->
<svg version="1.1" id="Capa_1" xmlns="http://www.w3.org/2000/svg" xmlns:xlink="http://www.w3.org/1999/xlink" x="0px" y="0px"
	 viewBox="0 0 512 512" style="enable-background:new 0 0 512 512;" xml:space="preserve">
<path style="fill:#6EDCF9;" d="M432.079,169.229c-1.097-43.626-43.748-74.44-85.721-61.263
	c-43.878-62.861-136.788-62.928-180.712-0.001c-41.971-13.168-84.622,17.626-85.722,61.262C33.793,182.368,0,224.792,0,275.138
	c0,60.827,49.313,110.141,110.144,110.141c11.492,0,275.214,0,291.713,0c60.83,0,110.143-49.314,110.143-110.141
	C512,224.792,478.208,182.368,432.079,169.229z"/>
<path style="fill:#54B8E5;" d="M165.646,107.965c-41.971-13.168-84.622,17.626-85.722,61.262C33.793,182.368,0,224.792,0,275.138
	c0,44.418,26.298,82.69,64.172,100.111c-68.059-51.67-54.069-158.594,26.175-190.226c1.512-0.865,9.249-1.324,10.95-12.141
	c0.006-0.082,0.008-0.135,0.008-0.135l0.013-0.003c5.035-31.435,32.248-55.463,65.104-55.463c4.56,0,9.486,0.633,8.972,0.615
	c9.389,0.331,15.741-3.483,18.116-6.934l0.006,0.005c32.968-37.857,85.789-47.677,128.936-27.856
	C272.913,45.534,201.638,56.401,165.646,107.965z"/>
<path style="fill:#3BBC56;" d="M315.283,334.045h-20.565v109.981c0,3.975-3.222,7.198-7.198,7.198h-60.977
	c-3.975,0-7.198-3.222-7.198-7.198V334.045h-19.544c-5.932,0-9.324-6.808-5.739-11.542l57.741-76.267
	c2.88-3.804,8.602-3.798,11.477,0l57.741,76.267C324.603,327.232,321.221,334.045,315.283,334.045z"/>
<path style="fill:#26A53B;" d="M240.424,444.026V344.8c0-7.991-3.793-10.221-6.726-10.754H220.88c-5.932,0-9.324-6.808-5.739-11.542
	l52.94-69.926l-4.801-6.341c-2.88-3.804-8.602-3.798-11.477,0l-57.741,76.267c-3.581,4.729-0.199,11.542,5.739,11.542h19.544
	v109.981c0,3.975,3.222,7.198,7.198,7.198h21.079C243.646,451.224,240.424,448.002,240.424,444.026z"/>
<g>
</g>
<g>
</g>
<g>
</g>
<g>
</g>
<g>
</g>
<g>
</g>
<g>
</g>
<g>
</g>
<g>
</g>
<g>
</g>
<g>
</g>
<g>
</g>
<g>
</g>
<g>
</g>
<g>
</g>
</svg>
