<svg xmlns="http://www.w3.org/2000/svg" xmlns:xlink="http://www.w3.org/1999/xlink" version="1.1" x="0px" y="0px" viewBox="0 0 66 82.5" enable-background="new 0 0 66 66" xml:space="preserve"><g><g><path d="M29.2,18.8c-4.7,0-4.7,7.1-0.1,7.1c0.6,0,1,0.4,1,1c0,0.6-0.4,1-1,1c-2.3,0-4.3-1.4-5.1-3.5c-3.2,0.7-4.2,4.8-1.6,6.9    c0.6,0.4,0.5,1.3-0.1,1.7c-3.5,1.9-2.5,7.2,1.5,7.7c0.9-4.3,6.4-5.6,6.4-3.4c0,0.6-0.4,1-1,1c-1.9,0-3.5,1.6-3.5,3.5    c0,4.7,7.1,4.6,7.1,0V22.3C32.8,20.4,31.2,18.8,29.2,18.8z M26.6,34.9c-0.3,0.2-1.3,1.8-2.2,0.8c-1.4-1.4,2.4-2.3,0.8-3.9L24,30.7    c-0.9-0.9,0.5-2.3,1.4-1.4c0.6,0.8,2,1.5,2,3.4C27.5,33.5,27.2,34.3,26.6,34.9z M29.8,35.8c-0.4-0.4-0.4-1,0-1.4    c0.6-0.6,1.7-0.2,1.7,0.7C31.6,36,30.5,36.4,29.8,35.8z M30.6,33.2c-0.9,0-1.3-1.1-0.7-1.7c0.6-0.6,1.7-0.2,1.7,0.7    C31.6,32.8,31.1,33.2,30.6,33.2z M30.6,30.4c-0.9,0-1.3-1.1-0.7-1.7c0.4-0.4,1-0.4,1.4,0C31.9,29.3,31.4,30.4,30.6,30.4z"/></g><g><path d="M58,40c0,1.8,1.4,3.2,3.2,3.2c1.8,0,3.2-1.4,3.2-3.2c0-1.4-0.9-2.6-2.2-3v-4.8c0-0.6-0.4-1-1-1h-4.7    c-0.2-4.6-1.6-8.9-4.2-12.3c-0.5-0.7-1.1-1.3-1.7-1.9l5.7-5.6c0.3,0.1,0.7,0.2,1.1,0.2c1.8,0,3.2-1.4,3.2-3.2    c0-1.8-1.4-3.2-3.2-3.2c-1.8,0-3.2,1.4-3.2,3.2c0,0.7,0.2,1.3,0.5,1.8l-5.6,5.6c-3.8-2.9-8.6-4.2-14.3-3.9V7.2    c1.3-0.4,2.2-1.6,2.2-3C37,2.4,35.6,1,33.8,1c-1.8,0-3.2,1.4-3.2,3.2c0,1.4,0.9,2.6,2.2,3v4.6c-3.2,0.4-6.6,1.2-10.1,2.6    c-0.9,0.3-1.7,0.7-2.5,1.2L14.6,10c0.3-0.5,0.5-1.1,0.5-1.8c0-1.8-1.4-3.2-3.2-3.2c-1.8,0-3.2,1.4-3.2,3.2c0,1.8,1.4,3.2,3.2,3.2    c0.4,0,0.7-0.1,1.1-0.2l5.5,5.5c-3.1,2.6-5.1,6.3-5.8,9.9L7,25.5L6.1,19C7.2,18.5,8,17.4,8,16.1c0-1.8-1.4-3.2-3.2-3.2    c-1.8,0-3.2,1.4-3.2,3.2c0,1.5,1.1,2.8,2.5,3.1l1,7.3c0.1,0.4,0.4,0.8,0.8,0.8l6.5,1.3c-0.1,0.6-0.1,1.3,0,1.9    c0.1,1.1-0.1,3.1-2.1,5c-0.6,0.4-3.7,2.9-3.2,5.5c0.2,1.4,1.3,2.4,3.3,3.2c-0.5,1.5-0.8,3.4,0.6,4.5c0.1,0.9,0.4,2.5,1.3,3.4    c-0.3,1.4-0.6,4.2,0.8,5.9c0.9,1,2.3,1.5,4,1.2l8.3-1c1-0.1,1.3,0.3,1.9,2.6c0.4,1.7,1,4.2,3.5,4.2c0.2,0,0.4,0,0.6,0l18.2-2.3    c0.9-0.1,1.8-0.6,2.3-1.4c0.5-0.8,0.7-1.7,0.5-2.7c-0.4-1.6-0.7-2.8-1-3.8c-1-4-1-4.2-0.7-4.7c0.2-0.2,0.3-0.4,0.4-0.7l5.3,4.1    c-0.1,0.3-0.2,0.7-0.2,1c0,1.8,1.4,3.2,3.2,3.2s3.2-1.4,3.2-3.2c0-1.8-1.4-3.2-3.2-3.2c-0.7,0-1.3,0.2-1.8,0.6l-5.4-4.2    c2.7-4.6,4.2-9.7,4.3-14.6h3.7v3.8C58.9,37.4,58,38.5,58,40z M57.4,7.1c0.7,0,1.2,0.5,1.2,1.2c0,0.7-0.5,1.2-1.2,1.2    s-1.2-0.5-1.2-1.2C56.2,7.6,56.7,7.1,57.4,7.1z M11.9,9.5c-0.7,0-1.2-0.5-1.2-1.2c0-0.7,0.5-1.2,1.2-1.2s1.2,0.5,1.2,1.2    C13.1,8.9,12.6,9.5,11.9,9.5z M4.8,17.3c-0.7,0-1.2-0.5-1.2-1.2s0.5-1.2,1.2-1.2c0.7,0,1.2,0.5,1.2,1.2S5.4,17.3,4.8,17.3z     M32.6,4.2c0-0.7,0.5-1.2,1.2-1.2S35,3.5,35,4.2c0,0.7-0.5,1.2-1.2,1.2S32.6,4.9,32.6,4.2z M43.8,42.7c-0.9,4.9-7.2,6.3-10,2.2    c-2.9,4.1-9.2,2.6-10-2.2c-3.1-0.3-5.6-2.9-5.6-6.1c0-1.8,0.8-3.5,2.1-4.6c-0.9-1-1.3-2.4-1.3-3.7c0-2.8,2-5.2,4.7-5.8    c-0.1-5.5,7-7.8,10.1-3.3C37,14.6,44,17,43.9,22.4c2.7,0.6,4.7,3,4.7,5.8c0,1.4-0.5,2.7-1.3,3.7c1.3,1.2,2.1,2.8,2.1,4.6    C49.4,39.8,47,42.4,43.8,42.7z M59.4,53.3c0.7,0,1.2,0.5,1.2,1.2c0,0.7-0.5,1.2-1.2,1.2s-1.2-0.5-1.2-1.2    C58.2,53.9,58.8,53.3,59.4,53.3z M61.2,38.8c0.7,0,1.2,0.5,1.2,1.2c0,0.7-0.5,1.2-1.2,1.2c-0.6,0-1.2-0.5-1.2-1.2    C60,39.3,60.6,38.8,61.2,38.8z"/></g><g><path d="M45.3,33c-0.6-0.3-0.7-1.2-0.1-1.7c0.9-0.8,1.5-1.9,1.5-3.1c0-1.9-1.3-3.4-3.1-3.8c-0.8,2-2.8,3.5-5.1,3.5    c-0.6,0-1-0.4-1-1c0-0.6,0.4-1,1-1c4.7,0,4.6-7.1-0.1-7.1c-2,0-3.6,1.6-3.6,3.6v19.4c0,4.5,6.8,4.8,7.1,0.2c0-0.1,0-0.1,0-0.2    c0-1.9-1.6-3.5-3.5-3.5c-0.6,0-1-0.4-1-1c0-0.6,0.4-1,1-1c2.7,0,4.9,1.9,5.4,4.4c2.1-0.3,3.7-2,3.7-4.1    C47.4,35.1,46.6,33.7,45.3,33z M37.1,36.1c-0.9,0-1.4-1.1-0.7-1.7c0.6-0.6,1.7-0.2,1.7,0.7C38.1,35.7,37.6,36.1,37.1,36.1z     M37.1,33.2c-0.8,0-1.4-1-0.7-1.7c0.4-0.4,1.1-0.4,1.4,0C38.4,32.1,37.9,33.2,37.1,33.2z M37.1,30.4c-0.6,0-1-0.5-1-1    c0-0.9,1.1-1.3,1.7-0.7C38.4,29.3,38,30.4,37.1,30.4z M43.3,34.3c0.6,0.6,0.2,1.7-0.7,1.7c-0.6,0-0.9-0.5-1.5-1.1    c-1.2-1.2-1.2-3.3,0-4.5c0.5-0.4,1.5-2.1,2.5-1.1c1.3,1.3-1.5,2-1.5,3.4C42.1,33.4,42.7,33.6,43.3,34.3z"/></g></g><text x="0" y="81" fill="#000000" font-size="5px" font-weight="bold" font-family="'Helvetica Neue', Helvetica, Arial-Unicode, Arial, Sans-serif">Created by ProSymbols</text><text x="0" y="86" fill="#000000" font-size="5px" font-weight="bold" font-family="'Helvetica Neue', Helvetica, Arial-Unicode, Arial, Sans-serif">from the Noun Project</text></svg>